<?xml version="1.0" encoding="utf-8"?>
<!-- Generator: Adobe Illustrator 18.1.1, SVG Export Plug-In . SVG Version: 6.00 Build 0)  -->
<svg version="1.1" id="Слой_1" xmlns="http://www.w3.org/2000/svg" xmlns:xlink="http://www.w3.org/1999/xlink" x="0px" y="0px"
	 viewBox="0 0 27.71 29.42" enable-background="new 0 0 27.71 29.42" xml:space="preserve">
<g>
	<path fill-rule="evenodd" clip-rule="evenodd" fill="#65B557" d="M27.71,25.79c0,1.19-2.21,2.25-5.62,2.91
		c-2.3,0.45-5.15,0.72-8.24,0.72C6.22,29.42,0,27.79,0,25.79c0-2.01,6.12-3.63,13.66-3.66h0.19C21.48,22.13,27.71,23.76,27.71,25.79
		z"/>
	<path fill-rule="evenodd" clip-rule="evenodd" fill="#549649" d="M27.71,25.79c0,1.19-2.21,2.25-5.62,2.91l-8.24-3.64l-0.19-2.93
		h0.19C21.48,22.13,27.71,23.76,27.71,25.79z"/>
	<path fill-rule="evenodd" clip-rule="evenodd" fill="#FF623B" d="M13.85,0c4.77,0,8.68,3.6,9.23,8.2c0.06,0.37,0.06,0.74,0.06,1.11
		c0,6.06-4.86,12.03-9.28,15.74c-4.43-3.71-9.28-9.69-9.28-15.74c0-0.37,0-0.74,0.06-1.11C5.14,3.6,9.08,0,13.85,0L13.85,0z"/>
	<linearGradient id="SVGID_1_" gradientUnits="userSpaceOnUse" x1="15.6745" y1="10.7795" x2="23.1745" y2="14.6128">
		<stop  offset="0" style="stop-color:#BD3D1C"/>
		<stop  offset="1" style="stop-color:#FF623B"/>
	</linearGradient>
	<path opacity="0.5" fill-rule="evenodd" clip-rule="evenodd" fill="url(#SVGID_1_)" d="M23.14,9.71c-0.11,3-1.4,6-3.2,8.69
		l-8.46-4.97l4.43-7.97L23.14,9.71z"/>
	<path fill-rule="evenodd" clip-rule="evenodd" fill="#FFFFFF" d="M13.85,14.11c2.51,0,4.57-2.06,4.57-4.57s-2.06-4.57-4.57-4.57
		S9.28,7.03,9.28,9.54S11.34,14.11,13.85,14.11L13.85,14.11z"/>
	<linearGradient id="SVGID_2_" gradientUnits="userSpaceOnUse" x1="15.4492" y1="10.9078" x2="9.4492" y2="5.7828">
		<stop  offset="0" style="stop-color:#FFFFFF"/>
		<stop  offset="1" style="stop-color:#D1D1D1"/>
	</linearGradient>
	<path fill-rule="evenodd" clip-rule="evenodd" fill="url(#SVGID_2_)" d="M13.86,12.69c1.74,0,3.15-1.41,3.15-3.13
		c0-1.76-1.41-3.17-3.15-3.17c-1.76,0-3.17,1.41-3.17,3.17C10.69,11.28,12.1,12.69,13.86,12.69L13.86,12.69z"/>
</g>
<g>
</g>
<g>
</g>
<g>
</g>
<g>
</g>
<g>
</g>
<g>
</g>
<g>
</g>
<g>
</g>
<g>
</g>
<g>
</g>
<g>
</g>
<g>
</g>
<g>
</g>
<g>
</g>
<g>
</g>
</svg>
